<svg id="visual" viewBox="0 0 900 200" width="900" height="200" xmlns="http://www.w3.org/2000/svg" xmlns:xlink="http://www.w3.org/1999/xlink" version="1.1"><path d="M0 577L4.8 563.5C9.7 550 19.3 523 29 507.5C38.7 492 48.3 488 58 502C67.7 516 77.3 548 87 553.7C96.7 559.3 106.3 538.7 116 525C125.7 511.3 135.3 504.7 145 516C154.7 527.3 164.3 556.7 174 569.7C183.7 582.7 193.3 579.3 203 577.8C212.7 576.3 222.3 576.7 232 568.8C241.7 561 251.3 545 261 544.3C270.7 543.7 280.3 558.3 290 565.8C299.7 573.3 309.3 573.7 319 561.8C328.7 550 338.3 526 348 511.8C357.7 497.7 367.3 493.3 377 508.8C386.7 524.3 396.3 559.7 406 573.7C415.7 587.7 425.3 580.3 435.2 577.7C445 575 455 577 464.8 561.5C474.7 546 484.3 513 494 503.2C503.7 493.3 513.3 506.7 523 525.5C532.7 544.3 542.3 568.7 552 573.3C561.7 578 571.3 563 581 548.5C590.7 534 600.3 520 610 526.7C619.7 533.3 629.3 560.7 639 562.7C648.7 564.7 658.3 541.3 668 536.2C677.7 531 687.3 544 697 549.8C706.7 555.7 716.3 554.3 726 545.5C735.7 536.7 745.3 520.3 755 508.7C764.7 497 774.3 490 784 503C793.7 516 803.3 549 813 565.8C822.7 582.7 832.3 583.3 842 571C851.7 558.7 861.3 533.3 871 534.3C880.7 535.3 890.3 562.7 895.2 576.3L900 590L900 601L895.2 601C890.3 601 880.7 601 871 601C861.3 601 851.7 601 842 601C832.3 601 822.7 601 813 601C803.3 601 793.7 601 784 601C774.3 601 764.7 601 755 601C745.3 601 735.7 601 726 601C716.3 601 706.7 601 697 601C687.3 601 677.7 601 668 601C658.3 601 648.7 601 639 601C629.3 601 619.7 601 610 601C600.3 601 590.7 601 581 601C571.3 601 561.7 601 552 601C542.3 601 532.7 601 523 601C513.3 601 503.7 601 494 601C484.3 601 474.7 601 464.8 601C455 601 445 601 435.2 601C425.3 601 415.7 601 406 601C396.3 601 386.7 601 377 601C367.3 601 357.7 601 348 601C338.3 601 328.7 601 319 601C309.3 601 299.7 601 290 601C280.3 601 270.7 601 261 601C251.3 601 241.7 601 232 601C222.3 601 212.7 601 203 601C193.3 601 183.7 601 174 601C164.3 601 154.7 601 145 601C135.3 601 125.7 601 116 601C106.3 601 96.7 601 87 601C77.3 601 67.7 601 58 601C48.3 601 38.7 601 29 601C19.3 601 9.7 601 4.8 601L0 601Z" fill="#9333ea" stroke-linecap="round" stroke-linejoin="miter"></path></svg>